<svg width="32" height="32" viewBox="0 0 32 32" fill="none" xmlns="http://www.w3.org/2000/svg">
    <path fill-rule="evenodd" clip-rule="evenodd" d="M29.3334 25.7331V29.2697C29.3334 30.0697 28.5334 30.8697 27.6 30.8697H20.2667C19.4667 30.8697 18.6667 30.0697 18.6667 29.1364V25.5997C18.6667 24.7997 19.4667 23.9997 20.2667 23.9997V20.6869C20.2667 18.8202 22.1334 17.3535 24 17.3535C25.8667 17.3535 27.7334 18.8202 27.7334 20.6869V23.9997C28.5334 23.9997 29.3334 24.7997 29.3334 25.7331ZM26 20.9326C26 19.8659 25.0667 19.1992 24 19.1992C22.9334 19.1992 22 19.8659 22 20.9326V23.9997H26V20.9326Z" fill="currentColor"/>
    <path d="M9.26739 10.1865H8.24032V8.15221H9.27235C9.59652 8.15221 9.82971 8.22333 9.97195 8.36556C10.1142 8.5078 10.1853 8.72446 10.1853 9.01554V9.32317C10.1853 9.61095 10.1125 9.82761 9.96699 9.97315C9.82475 10.1154 9.59155 10.1865 9.26739 10.1865Z" fill="currentColor"/>
    <path d="M21.7334 10.1865H22.7605C23.0846 10.1865 23.3178 10.1154 23.4601 9.97315C23.6056 9.82761 23.6784 9.61095 23.6784 9.32317V9.01554C23.6784 8.72446 23.6073 8.5078 23.465 8.36556C23.3228 8.22333 23.0896 8.15221 22.7654 8.15221H21.7334V10.1865Z" fill="currentColor"/>
    <path fill-rule="evenodd" clip-rule="evenodd" d="M3.91052 5.34172C3.91052 3.86896 5.10443 2.67505 6.57719 2.67505H25.3718C26.8445 2.67505 28.0385 3.86896 28.0385 5.34172V16.9867C27.0537 15.6079 25.3058 14.7004 23.5579 14.7004C20.9127 14.7004 18.2674 16.7789 18.2674 19.4241V22.2583C17.1337 22.2583 16 23.392 16 24.5257V29.3046H6.57719C5.10443 29.3046 3.91052 28.1107 3.91052 26.6379V5.34172ZM15.2839 13.3818C14.801 13.3818 14.3958 13.2776 14.0683 13.0692C13.7441 12.8608 13.501 12.5598 13.3389 12.1662C13.1768 11.7693 13.0958 11.293 13.0958 10.7372V9.62087C13.0958 8.68807 13.3472 7.97855 13.85 7.49231C14.3561 7.00606 15.0937 6.76294 16.0629 6.76294C16.3606 6.76294 16.6368 6.78444 16.8915 6.82744C17.1462 6.86713 17.3777 6.92006 17.5861 6.98622C17.7978 7.05237 17.9814 7.12514 18.1369 7.20453L18.2708 8.51441C18.0194 8.40195 17.7383 8.30272 17.4273 8.21671C17.1197 8.1274 16.7658 8.08275 16.3655 8.08275C15.7834 8.08275 15.3567 8.21506 15.0854 8.47968C14.8142 8.741 14.6786 9.15116 14.6786 9.71018V10.7521C14.6786 11.1689 14.7762 11.4914 14.9713 11.7197C15.1698 11.9479 15.4774 12.062 15.8942 12.062C16.0794 12.062 16.2399 12.0356 16.3755 11.9826C16.5144 11.9264 16.6285 11.8536 16.7178 11.7643C16.8104 11.675 16.8832 11.5758 16.9361 11.4666V10.7133L15.919 10.7174V9.52164H18.4246V13.2429H16.9213L16.9614 12.1861H16.9064C16.8568 12.4143 16.7724 12.6194 16.6533 12.8013C16.5376 12.9799 16.3689 13.1222 16.1472 13.228C15.9289 13.3306 15.6411 13.3818 15.2839 13.3818ZM8.25024 13.2429V11.4418H9.39143C10.1952 11.4418 10.784 11.2648 11.1578 10.9109C11.5349 10.5537 11.7234 10.041 11.7234 9.37278V8.97089C11.7234 8.30602 11.5349 7.79497 11.1578 7.43773C10.784 7.08049 10.1936 6.90187 9.38647 6.90187H6.72205V13.2429H8.25024ZM21.7433 11.4418V13.2429H20.2151V6.90187H22.8795C23.6866 6.90187 24.2771 7.08049 24.6509 7.43773C25.0279 7.79497 25.2165 8.30602 25.2165 8.97089V9.37278C25.2165 10.041 25.0279 10.5537 24.6509 10.9109C24.2771 11.2648 23.6883 11.4418 22.8845 11.4418H21.7433Z" fill="currentColor"/>
</svg>
