<svg width="24" height="24" viewBox="0 0 24 24" fill="none" xmlns="http://www.w3.org/2000/svg">
    <path d="M6.54854 12.036H5.72054V10.396H6.55254C6.81387 10.396 7.00187 10.4533 7.11654 10.568C7.2312 10.6827 7.28854 10.8573 7.28854 11.092V11.34C7.28854 11.572 7.22987 11.7467 7.11254 11.864C6.99787 11.9787 6.80987 12.036 6.54854 12.036Z" fill="currentColor"/>
    <path d="M16.5983 12.036H17.4263C17.6877 12.036 17.8757 11.9787 17.9903 11.864C18.1077 11.7467 18.1663 11.572 18.1663 11.34V11.092C18.1663 10.8573 18.109 10.6827 17.9943 10.568C17.8797 10.4533 17.6917 10.396 17.4303 10.396H16.5983V12.036Z" fill="currentColor"/>
    <path fill-rule="evenodd" clip-rule="evenodd" d="M4.97852 2.03955C3.87395 2.03955 2.97852 2.93498 2.97852 4.03955V19.957C2.97852 21.0616 3.87395 21.957 4.97852 21.957H19.0288C20.1334 21.957 21.0288 21.0616 21.0288 19.957V4.03955C21.0288 2.93498 20.1334 2.03955 19.0288 2.03955H4.97852ZM11.3989 14.612C11.0096 14.612 10.6829 14.528 10.4189 14.36C10.1576 14.192 9.96158 13.9493 9.83091 13.632C9.70024 13.312 9.63491 12.928 9.63491 12.48V11.58C9.63491 10.828 9.83758 10.256 10.2429 9.864C10.6509 9.472 11.2456 9.276 12.0269 9.276C12.2669 9.276 12.4896 9.29333 12.6949 9.328C12.9002 9.36 13.0869 9.40267 13.2549 9.456C13.4256 9.50933 13.5736 9.568 13.6989 9.632L13.8069 10.688C13.6042 10.5973 13.3776 10.5173 13.1269 10.448C12.8789 10.376 12.5936 10.34 12.2709 10.34C11.8016 10.34 11.4576 10.4467 11.2389 10.66C11.0202 10.8707 10.9109 11.2013 10.9109 11.652V12.492C10.9109 12.828 10.9896 13.088 11.1469 13.272C11.3069 13.456 11.5549 13.548 11.8909 13.548C12.0402 13.548 12.1696 13.5267 12.2789 13.484C12.3909 13.4387 12.4829 13.38 12.5549 13.308C12.6296 13.236 12.6882 13.156 12.7309 13.068V12.4607L11.9109 12.464V11.5H13.9309V14.5H12.7189L12.7513 13.648H12.7069C12.6669 13.832 12.5989 13.9973 12.5029 14.144C12.4096 14.288 12.2736 14.4027 12.0949 14.488C11.9189 14.5707 11.6869 14.612 11.3989 14.612ZM5.72854 14.5V13.048H6.64854C7.29654 13.048 7.7712 12.9053 8.07254 12.62C8.37654 12.332 8.52854 11.9187 8.52854 11.38V11.056C8.52854 10.52 8.37654 10.108 8.07254 9.82C7.7712 9.532 7.2952 9.388 6.64454 9.388H4.49654V14.5H5.72854ZM16.6063 13.048V14.5H15.3743V9.388H17.5223C18.173 9.388 18.649 9.532 18.9503 9.82C19.2543 10.108 19.4063 10.52 19.4063 11.056V11.38C19.4063 11.9187 19.2543 12.332 18.9503 12.62C18.649 12.9053 18.1743 13.048 17.5263 13.048H16.6063Z" fill="currentColor"/>
</svg>
